<?xml version="1.0" standalone="no"?>
<!DOCTYPE svg PUBLIC "-//W3C//DTD SVG 20010904//EN"
 "http://www.w3.org/TR/2001/REC-SVG-20010904/DTD/svg10.dtd">
<svg version="1.0" xmlns="http://www.w3.org/2000/svg"
 width="281.000000pt" height="281.000000pt" viewBox="0 0 281.000000 281.000000"
 preserveAspectRatio="xMidYMid meet">
<metadata>
Created by potrace 1.11, written by Peter Selinger 2001-2013
</metadata>
<g transform="translate(0.000000,281.000000) scale(0.100000,-0.100000)"
fill="#000000" stroke="none">
<path d="M0 1405 l0 -1405 1405 0 1405 0 0 1405 0 1405 -1405 0 -1405 0 0
-1405z m2790 0 l0 -1385 -1385 0 -1385 0 0 1385 0 1385 1385 0 1385 0 0 -1385z"/>
<path d="M1143 1975 c-178 -48 -322 -203 -356 -383 l-12 -62 -35 0 c-97 0
-220 -53 -293 -126 -122 -123 -155 -312 -82 -472 30 -64 115 -151 182 -185
113 -57 104 -57 931 -57 465 0 780 4 812 10 108 21 198 87 248 185 37 73 42
188 12 270 -42 111 -177 215 -280 215 -26 0 -29 4 -39 53 -28 131 -108 235
-229 294 -74 37 -79 38 -189 38 l-114 1 -42 51 c-23 29 -56 63 -72 76 -43 35
-142 84 -195 96 -63 15 -185 12 -247 -4z m230 -50 c119 -31 232 -114 282 -208
12 -23 25 -35 33 -32 8 3 44 10 81 16 78 13 165 -4 237 -46 93 -54 174 -181
174 -273 0 -52 7 -58 72 -65 75 -7 134 -35 185 -86 135 -136 97 -364 -75 -452
l-47 -24 -830 0 -830 0 -57 27 c-128 60 -207 171 -216 302 -14 220 147 388
370 387 l78 0 0 37 c0 48 24 142 50 192 11 21 45 66 76 99 108 117 267 165
417 126z"/>
<path d="M1120 1308 l0 -368 45 0 45 0 0 170 0 170 88 0 87 0 79 -170 79 -170
48 0 48 0 -33 73 c-18 39 -56 118 -85 174 -28 57 -51 105 -51 107 0 2 15 10
34 16 116 38 155 211 67 299 -50 50 -93 60 -288 64 l-163 3 0 -368z m342 283
c69 -26 92 -131 42 -190 -33 -39 -77 -51 -196 -51 l-98 0 0 124 0 125 43 3
c65 6 181 0 209 -11z"/>
</g>
</svg>
